<svg width="48" height="48" viewBox="0 0 48 48" fill="none" xmlns="http://www.w3.org/2000/svg">
<path d="M0 10C0 4.47715 4.47715 0 10 0H38C43.5229 0 48 4.47715 48 10V38C48 43.5229 43.5228 48 38 48H10C4.47715 48 0 43.5228 0 38V10Z" fill="url(#paint0_linear_2005_437)"/>
<path d="M32 25C32 30 28.5 32.5 24.34 33.95C24.1222 34.0238 23.8855 34.0202 23.67 33.94C19.5 32.5 16 30 16 25V18C16 17.7347 16.1054 17.4804 16.2929 17.2929C16.4804 17.1053 16.7348 17 17 17C19 17 21.5 15.8 23.24 14.28C23.4519 14.099 23.7214 13.9995 24 13.9995C24.2787 13.9995 24.5481 14.099 24.76 14.28C26.51 15.81 29 17 31 17C31.2652 17 31.5196 17.1053 31.7071 17.2929C31.8946 17.4804 32 17.7347 32 18V25Z" stroke="white" stroke-width="2" stroke-linecap="round" stroke-linejoin="round"/>
<defs>
<linearGradient id="paint0_linear_2005_437" x1="24" y1="0" x2="24" y2="48" gradientUnits="userSpaceOnUse">
<stop stop-color="#4C38FF"/>
<stop offset="1" stop-color="#00E5FF"/>
</linearGradient>
</defs>
</svg>
