<svg width="64" height="64" viewBox="0 0 64 64" fill="none" xmlns="http://www.w3.org/2000/svg">
<path d="M0 32C0 14.3269 14.3269 0 32 0C49.6731 0 64 14.3269 64 32C64 49.6731 49.6731 64 32 64C14.3269 64 0 49.6731 0 32Z" fill="url(#paint0_linear_2005_459)"/>
<path d="M22 38.0001C20 39.6801 19.3333 44.6667 19.3333 44.6667C19.3333 44.6667 24.32 44.0001 26 42.0001C26.9467 40.8801 26.9333 39.1601 25.88 38.1201C25.3617 37.6254 24.6791 37.3396 23.963 37.3174C23.2469 37.2953 22.5478 37.5384 22 38.0001Z" stroke="#00E5FF" stroke-width="2.66667" stroke-linecap="round" stroke-linejoin="round"/>
<path d="M32 36L28 32C28.7095 30.1593 29.6029 28.3948 30.6667 26.7334C32.2202 24.2494 34.3835 22.2041 36.9507 20.7922C39.5178 19.3802 42.4036 18.6485 45.3333 18.6667C45.3333 22.2934 44.2933 28.6667 37.3333 33.3334C35.6492 34.3983 33.8625 35.2917 32 36Z" stroke="#00E5FF" stroke-width="2.66667" stroke-linecap="round" stroke-linejoin="round"/>
<path d="M28 32.0001H21.3333C21.3333 32.0001 22.0667 27.9601 24 26.6667C26.16 25.2267 30.6667 26.6667 30.6667 26.6667" stroke="#00E5FF" stroke-width="2.66667" stroke-linecap="round" stroke-linejoin="round"/>
<path d="M32 36V42.6667C32 42.6667 36.04 41.9334 37.3333 40C38.7733 37.84 37.3333 33.3334 37.3333 33.3334" stroke="#00E5FF" stroke-width="2.66667" stroke-linecap="round" stroke-linejoin="round"/>
<defs>
<linearGradient id="paint0_linear_2005_459" x1="0" y1="0" x2="64" y2="64" gradientUnits="userSpaceOnUse">
<stop stop-color="#4C38FF" stop-opacity="0.2"/>
<stop offset="1" stop-color="#00E5FF" stop-opacity="0.2"/>
</linearGradient>
</defs>
</svg>
