<svg width="48" height="48" viewBox="0 0 48 48" fill="none" xmlns="http://www.w3.org/2000/svg">
<path d="M0 10C0 4.47715 4.47715 0 10 0H38C43.5229 0 48 4.47715 48 10V38C48 43.5229 43.5228 48 38 48H10C4.47715 48 0 43.5228 0 38V10Z" fill="url(#paint0_linear_2005_406)"/>
<path d="M16.5 28.5C15 29.76 14.5 33.5 14.5 33.5C14.5 33.5 18.24 33 19.5 31.5C20.21 30.66 20.2 29.37 19.41 28.59C19.0213 28.219 18.5093 28.0047 17.9722 27.988C17.4352 27.9714 16.9109 28.1538 16.5 28.5Z" stroke="white" stroke-width="2" stroke-linecap="round" stroke-linejoin="round"/>
<path d="M24 27L21 24C21.5321 22.6194 22.2022 21.2961 23 20.05C24.1652 18.187 25.7876 16.6531 27.713 15.5941C29.6384 14.5351 31.8027 13.9864 34 14C34 16.72 33.22 21.5 28 25C26.7369 25.7987 25.3968 26.4687 24 27Z" stroke="white" stroke-width="2" stroke-linecap="round" stroke-linejoin="round"/>
<path d="M21 24H16C16 24 16.55 20.97 18 20C19.62 18.92 23 20 23 20" stroke="white" stroke-width="2" stroke-linecap="round" stroke-linejoin="round"/>
<path d="M24 27V32C24 32 27.03 31.45 28 30C29.08 28.38 28 25 28 25" stroke="white" stroke-width="2" stroke-linecap="round" stroke-linejoin="round"/>
<defs>
<linearGradient id="paint0_linear_2005_406" x1="24" y1="0" x2="24" y2="48" gradientUnits="userSpaceOnUse">
<stop stop-color="#4C38FF"/>
<stop offset="1" stop-color="#00E5FF"/>
</linearGradient>
</defs>
</svg>
