<svg width="48" height="48" viewBox="0 0 48 48" fill="none" xmlns="http://www.w3.org/2000/svg">
<path d="M0 10C0 4.47715 4.47715 0 10 0H38C43.5229 0 48 4.47715 48 10V38C48 43.5229 43.5228 48 38 48H10C4.47715 48 0 43.5228 0 38V10Z" fill="url(#paint0_linear_2005_429)"/>
<path d="M23.525 14.295C23.5688 14.2065 23.6365 14.1319 23.7205 14.0798C23.8044 14.0277 23.9012 14.0001 24 14.0001C24.0988 14.0001 24.1956 14.0277 24.2795 14.0798C24.3635 14.1319 24.4312 14.2065 24.475 14.295L26.785 18.974C26.9372 19.282 27.1618 19.5484 27.4396 19.7505C27.7174 19.9525 28.0401 20.0841 28.38 20.134L33.546 20.89C33.6439 20.9042 33.7358 20.9455 33.8115 21.0092C33.8871 21.0729 33.9434 21.1566 33.974 21.2506C34.0046 21.3447 34.0083 21.4454 33.9846 21.5415C33.9609 21.6375 33.9108 21.725 33.84 21.794L30.104 25.432C29.8576 25.6721 29.6733 25.9685 29.5668 26.2956C29.4604 26.6228 29.4351 26.9709 29.493 27.31L30.375 32.45C30.3923 32.5479 30.3817 32.6486 30.3445 32.7407C30.3073 32.8328 30.2449 32.9126 30.1645 32.971C30.0842 33.0294 29.989 33.064 29.8899 33.0709C29.7908 33.0778 29.6917 33.0567 29.604 33.01L24.986 30.582C24.6817 30.4222 24.3432 30.3388 23.9995 30.3388C23.6558 30.3388 23.3173 30.4222 23.013 30.582L18.396 33.01C18.3083 33.0564 18.2094 33.0773 18.1105 33.0703C18.0115 33.0632 17.9165 33.0286 17.8363 32.9702C17.7561 32.9119 17.6938 32.8322 17.6567 32.7402C17.6195 32.6483 17.6089 32.5477 17.626 32.45L18.507 27.311C18.5652 26.9717 18.54 26.6234 18.4335 26.2961C18.3271 25.9687 18.1426 25.6722 17.896 25.432L14.16 21.795C14.0886 21.726 14.038 21.6384 14.014 21.5421C13.9899 21.4458 13.9934 21.3446 14.0241 21.2502C14.0547 21.1558 14.1113 21.0719 14.1873 21.008C14.2633 20.9441 14.3557 20.9029 14.454 20.889L19.619 20.134C19.9593 20.0845 20.2824 19.9531 20.5606 19.751C20.8388 19.5489 21.0637 19.2823 21.216 18.974L23.525 14.295Z" stroke="white" stroke-width="2" stroke-linecap="round" stroke-linejoin="round"/>
<defs>
<linearGradient id="paint0_linear_2005_429" x1="24" y1="0" x2="24" y2="48" gradientUnits="userSpaceOnUse">
<stop stop-color="#4C38FF"/>
<stop offset="1" stop-color="#00E5FF"/>
</linearGradient>
</defs>
</svg>
