<svg width="64" height="64" viewBox="0 0 64 64" fill="none" xmlns="http://www.w3.org/2000/svg">
<path d="M0 32C0 14.3269 14.3269 0 32 0C49.6731 0 64 14.3269 64 32C64 49.6731 49.6731 64 32 64C14.3269 64 0 49.6731 0 32Z" fill="url(#paint0_linear_2005_479)"/>
<path d="M32 24V32L37.3333 34.6667" stroke="#00E5FF" stroke-width="2.66667" stroke-linecap="round" stroke-linejoin="round"/>
<path d="M32 45.3333C39.3638 45.3333 45.3333 39.3638 45.3333 32C45.3333 24.6362 39.3638 18.6666 32 18.6666C24.6362 18.6666 18.6667 24.6362 18.6667 32C18.6667 39.3638 24.6362 45.3333 32 45.3333Z" stroke="#00E5FF" stroke-width="2.66667" stroke-linecap="round" stroke-linejoin="round"/>
<defs>
<linearGradient id="paint0_linear_2005_479" x1="0" y1="0" x2="64" y2="64" gradientUnits="userSpaceOnUse">
<stop stop-color="#4C38FF" stop-opacity="0.2"/>
<stop offset="1" stop-color="#00E5FF" stop-opacity="0.2"/>
</linearGradient>
</defs>
</svg>
