<svg width="64" height="64" viewBox="0 0 64 64" fill="none" xmlns="http://www.w3.org/2000/svg">
<path d="M0 32C0 14.3269 14.3269 0 32 0C49.6731 0 64 14.3269 64 32C64 49.6731 49.6731 64 32 64C14.3269 64 0 49.6731 0 32Z" fill="url(#paint0_linear_2005_470)"/>
<path d="M45.068 29.3333C45.6769 32.3217 45.2429 35.4285 43.8384 38.1357C42.4339 40.8429 40.1438 42.9867 37.35 44.2097C34.5561 45.4328 31.4275 45.661 28.4857 44.8565C25.5439 44.0519 22.9669 42.2632 21.1843 39.7885C19.4018 37.3139 18.5214 34.303 18.6902 31.2578C18.8589 28.2127 20.0665 25.3174 22.1115 23.0549C24.1565 20.7923 26.9154 19.2992 29.928 18.8246C32.9407 18.35 36.025 18.9225 38.6666 20.4467" stroke="#00E5FF" stroke-width="2.66667" stroke-linecap="round" stroke-linejoin="round"/>
<path d="M28 30.6667L32 34.6667L45.3333 21.3334" stroke="#00E5FF" stroke-width="2.66667" stroke-linecap="round" stroke-linejoin="round"/>
<defs>
<linearGradient id="paint0_linear_2005_470" x1="0" y1="0" x2="64" y2="64" gradientUnits="userSpaceOnUse">
<stop stop-color="#4C38FF" stop-opacity="0.2"/>
<stop offset="1" stop-color="#00E5FF" stop-opacity="0.2"/>
</linearGradient>
</defs>
</svg>
