<svg width="64" height="64" viewBox="0 0 64 64" fill="none" xmlns="http://www.w3.org/2000/svg">
<g opacity="0.4">
<path d="M0 32C0 14.3269 14.3269 0 32 0C49.6731 0 64 14.3269 64 32C64 49.6731 49.6731 64 32 64C14.3269 64 0 49.6731 0 32Z" fill="url(#paint0_linear_2005_488)"/>
<path d="M20 34.6667H24C24.7072 34.6667 25.3855 34.9476 25.8856 35.4477C26.3857 35.9478 26.6667 36.6261 26.6667 37.3333V41.3333C26.6667 42.0406 26.3857 42.7189 25.8856 43.219C25.3855 43.719 24.7072 44 24 44H22.6667C21.9594 44 21.2811 43.719 20.781 43.219C20.281 42.7189 20 42.0406 20 41.3333V32C20 28.8174 21.2643 25.7652 23.5147 23.5147C25.7652 21.2643 28.8174 20 32 20C35.1826 20 38.2348 21.2643 40.4853 23.5147C42.7357 25.7652 44 28.8174 44 32V41.3333C44 42.0406 43.719 42.7189 43.219 43.219C42.7189 43.719 42.0406 44 41.3333 44H40C39.2928 44 38.6145 43.719 38.1144 43.219C37.6143 42.7189 37.3333 42.0406 37.3333 41.3333V37.3333C37.3333 36.6261 37.6143 35.9478 38.1144 35.4477C38.6145 34.9476 39.2928 34.6667 40 34.6667H44" stroke="#00E5FF" stroke-width="2.66667" stroke-linecap="round" stroke-linejoin="round"/>
</g>
<defs>
<linearGradient id="paint0_linear_2005_488" x1="0" y1="0" x2="64" y2="64" gradientUnits="userSpaceOnUse">
<stop stop-color="#4C38FF" stop-opacity="0.2"/>
<stop offset="1" stop-color="#00E5FF" stop-opacity="0.2"/>
</linearGradient>
</defs>
</svg>
