<svg width="48" height="48" viewBox="0 0 48 48" fill="none" xmlns="http://www.w3.org/2000/svg">
<path d="M0 10C0 4.47715 4.47715 0 10 0H38C43.5229 0 48 4.47715 48 10V38C48 43.5229 43.5228 48 38 48H10C4.47715 48 0 43.5228 0 38V10Z" fill="url(#paint0_linear_2005_417)"/>
<path d="M24 34C21.3478 34 18.8043 32.9464 16.9289 31.0711C15.0536 29.1957 14 26.6522 14 24C14 21.3478 15.0536 18.8043 16.9289 16.9289C18.8043 15.0536 21.3478 14 24 14C26.6522 14 29.1957 14.9482 31.0711 16.636C32.9464 18.3239 34 20.6131 34 23C34 24.3261 33.4732 25.5979 32.5355 26.5355C31.5979 27.4732 30.3261 28 29 28H26.75C26.425 28 26.1064 28.0905 25.83 28.2614C25.5535 28.4322 25.3301 28.6767 25.1848 28.9674C25.0394 29.2581 24.9779 29.5835 25.0071 29.9072C25.0363 30.2308 25.155 30.54 25.35 30.8L25.65 31.2C25.845 31.46 25.9637 31.7692 25.9929 32.0928C26.0221 32.4165 25.9606 32.7419 25.8152 33.0326C25.6699 33.3233 25.4465 33.5678 25.17 33.7386C24.8936 33.9095 24.575 34 24.25 34H24Z" stroke="white" stroke-width="2" stroke-linecap="round" stroke-linejoin="round"/>
<path d="M25.5 19C25.7761 19 26 18.7761 26 18.5C26 18.2239 25.7761 18 25.5 18C25.2239 18 25 18.2239 25 18.5C25 18.7761 25.2239 19 25.5 19Z" fill="white" stroke="white" stroke-width="2" stroke-linecap="round" stroke-linejoin="round"/>
<path d="M29.5 23C29.7761 23 30 22.7761 30 22.5C30 22.2239 29.7761 22 29.5 22C29.2239 22 29 22.2239 29 22.5C29 22.7761 29.2239 23 29.5 23Z" fill="white" stroke="white" stroke-width="2" stroke-linecap="round" stroke-linejoin="round"/>
<path d="M18.5 25C18.7761 25 19 24.7761 19 24.5C19 24.2239 18.7761 24 18.5 24C18.2239 24 18 24.2239 18 24.5C18 24.7761 18.2239 25 18.5 25Z" fill="white" stroke="white" stroke-width="2" stroke-linecap="round" stroke-linejoin="round"/>
<path d="M20.5 20C20.7761 20 21 19.7761 21 19.5C21 19.2239 20.7761 19 20.5 19C20.2239 19 20 19.2239 20 19.5C20 19.7761 20.2239 20 20.5 20Z" fill="white" stroke="white" stroke-width="2" stroke-linecap="round" stroke-linejoin="round"/>
<defs>
<linearGradient id="paint0_linear_2005_417" x1="24" y1="0" x2="24" y2="48" gradientUnits="userSpaceOnUse">
<stop stop-color="#4C38FF"/>
<stop offset="1" stop-color="#00E5FF"/>
</linearGradient>
</defs>
</svg>
