<svg width="155" height="40" viewBox="0 0 155 40" fill="none" xmlns="http://www.w3.org/2000/svg">
<path d="M0 14C0 6.26801 6.26801 0 14 0H26C33.732 0 40 6.26801 40 14V26C40 33.732 33.732 40 26 40H14C6.26801 40 0 33.732 0 26V14Z" fill="url(#paint0_linear_2001_408)"/>
<path d="M20.125 18.2766C20.125 18.9901 19.9609 19.6229 19.6328 20.175C19.3099 20.7219 18.849 21.1516 18.25 21.4641C17.651 21.7713 16.9375 21.925 16.1094 21.925H13.375V25.8H11.0703V14.7922H16.0156C17.3333 14.7922 18.3464 15.0969 19.0547 15.7062C19.7682 16.3104 20.125 17.1672 20.125 18.2766ZM17.8047 18.3156C17.8047 17.1594 17.1224 16.5812 15.7578 16.5812H13.375V20.1516H15.8203C16.4557 20.1516 16.9453 19.9953 17.2891 19.6828C17.6328 19.3651 17.8047 18.9094 17.8047 18.3156ZM30.7188 22.6281C30.7188 23.7062 30.3177 24.5318 29.5156 25.1047C28.7188 25.6724 27.5469 25.9562 26 25.9562C23.2135 25.9562 21.5911 24.9484 21.1328 22.9328L23.3594 22.5656C23.5104 23.1489 23.8047 23.5734 24.2422 23.8391C24.6797 24.0995 25.2865 24.2297 26.0625 24.2297C26.8698 24.2297 27.474 24.1073 27.875 23.8625C28.276 23.6177 28.4766 23.2505 28.4766 22.7609C28.4766 22.4484 28.3854 22.1906 28.2031 21.9875C28.0208 21.7844 27.7604 21.6151 27.4219 21.4797C27.2552 21.412 27.0104 21.3391 26.6875 21.2609C26.3646 21.1776 25.9635 21.0864 25.4844 20.9875C24.9323 20.8573 24.5 20.7479 24.1875 20.6594C23.875 20.5656 23.625 20.4771 23.4375 20.3937C23.25 20.3052 23.0677 20.2088 22.8906 20.1047C22.5 19.8703 22.1953 19.5578 21.9766 19.1672C21.7578 18.7766 21.6484 18.2896 21.6484 17.7062C21.6484 16.7114 22.0208 15.951 22.7656 15.425C23.5156 14.8937 24.6042 14.6281 26.0312 14.6281C27.3958 14.6281 28.4193 14.8417 29.1016 15.2687C29.7891 15.6958 30.2318 16.4016 30.4297 17.3859L28.1953 17.6906C28.0807 17.2167 27.8464 16.8599 27.4922 16.6203C27.1432 16.3807 26.6406 16.2609 25.9844 16.2609C25.2865 16.2609 24.763 16.3703 24.4141 16.5891C24.0651 16.8078 23.8906 17.1359 23.8906 17.5734C23.8906 17.8599 23.9635 18.0943 24.1094 18.2766C24.2604 18.4588 24.4818 18.6151 24.7734 18.7453C25.0495 18.8703 25.6406 19.0292 26.5469 19.2219C27.0729 19.3364 27.526 19.4458 27.9062 19.55C28.2865 19.6489 28.5911 19.7453 28.8203 19.8391C29.0495 19.938 29.2526 20.0422 29.4297 20.1516C29.612 20.2609 29.7682 20.3781 29.8984 20.5031C30.1641 20.7583 30.3672 21.063 30.5078 21.4172C30.6484 21.7661 30.7188 22.1698 30.7188 22.6281Z" fill="white"/>
<path d="M59.94 17.48C59.94 18.2933 59.7533 19.04 59.38 19.72C59.0067 20.3867 58.4333 20.9267 57.66 21.34C56.8867 21.7533 55.9267 21.96 54.78 21.96H52.66V27H49.24V12.96H54.78C55.9 12.96 56.8467 13.1533 57.62 13.54C58.3933 13.9267 58.9733 14.46 59.36 15.14C59.7467 15.82 59.94 16.6 59.94 17.48ZM54.52 19.24C55.1733 19.24 55.66 19.0867 55.98 18.78C56.3 18.4733 56.46 18.04 56.46 17.48C56.46 16.92 56.3 16.4867 55.98 16.18C55.66 15.8733 55.1733 15.72 54.52 15.72H52.66V19.24H54.52ZM63.4405 14.68C62.8405 14.68 62.3471 14.5067 61.9605 14.16C61.5871 13.8 61.4005 13.36 61.4005 12.84C61.4005 12.3067 61.5871 11.8667 61.9605 11.52C62.3471 11.16 62.8405 10.98 63.4405 10.98C64.0271 10.98 64.5071 11.16 64.8805 11.52C65.2671 11.8667 65.4605 12.3067 65.4605 12.84C65.4605 13.36 65.2671 13.8 64.8805 14.16C64.5071 14.5067 64.0271 14.68 63.4405 14.68ZM65.1405 15.84V27H61.7205V15.84H65.1405ZM74.2189 27L72.0789 23.9L70.2789 27H66.5789L70.2589 21.3L66.4789 15.84H70.3189L72.4589 18.92L74.2589 15.84H77.9589L74.2189 21.46L78.0589 27H74.2189ZM89.8967 21.24C89.8967 21.56 89.8767 21.8933 89.8367 22.24H82.0967C82.1501 22.9333 82.3701 23.4667 82.7567 23.84C83.1567 24.2 83.6434 24.38 84.2167 24.38C85.0701 24.38 85.6634 24.02 85.9967 23.3H89.6367C89.4501 24.0333 89.1101 24.6933 88.6167 25.28C88.1367 25.8667 87.5301 26.3267 86.7967 26.66C86.0634 26.9933 85.2434 27.16 84.3367 27.16C83.2434 27.16 82.2701 26.9267 81.4167 26.46C80.5634 25.9933 79.8967 25.3267 79.4167 24.46C78.9367 23.5933 78.6967 22.58 78.6967 21.42C78.6967 20.26 78.9301 19.2467 79.3967 18.38C79.8767 17.5133 80.5434 16.8467 81.3967 16.38C82.2501 15.9133 83.2301 15.68 84.3367 15.68C85.4167 15.68 86.3767 15.9067 87.2167 16.36C88.0567 16.8133 88.7101 17.46 89.1767 18.3C89.6567 19.14 89.8967 20.12 89.8967 21.24ZM86.3967 20.34C86.3967 19.7533 86.1967 19.2867 85.7967 18.94C85.3967 18.5933 84.8967 18.42 84.2967 18.42C83.7234 18.42 83.2367 18.5867 82.8367 18.92C82.4501 19.2533 82.2101 19.7267 82.1167 20.34H86.3967ZM95.1209 12.2V27H91.7009V12.2H95.1209ZM102.679 27.14C101.653 27.14 100.733 26.9733 99.9194 26.64C99.106 26.3067 98.4527 25.8133 97.9594 25.16C97.4794 24.5067 97.226 23.72 97.1994 22.8H100.839C100.893 23.32 101.073 23.72 101.379 24C101.686 24.2667 102.086 24.4 102.579 24.4C103.086 24.4 103.486 24.2867 103.779 24.06C104.073 23.82 104.219 23.4933 104.219 23.08C104.219 22.7333 104.099 22.4467 103.859 22.22C103.633 21.9933 103.346 21.8067 102.999 21.66C102.666 21.5133 102.186 21.3467 101.559 21.16C100.653 20.88 99.9127 20.6 99.3394 20.32C98.766 20.04 98.2727 19.6267 97.8594 19.08C97.446 18.5333 97.2394 17.82 97.2394 16.94C97.2394 15.6333 97.7127 14.6133 98.6594 13.88C99.606 13.1333 100.839 12.76 102.359 12.76C103.906 12.76 105.153 13.1333 106.099 13.88C107.046 14.6133 107.553 15.64 107.619 16.96H103.919C103.893 16.5067 103.726 16.1533 103.419 15.9C103.113 15.6333 102.719 15.5 102.239 15.5C101.826 15.5 101.493 15.6133 101.239 15.84C100.986 16.0533 100.859 16.3667 100.859 16.78C100.859 17.2333 101.073 17.5867 101.499 17.84C101.926 18.0933 102.593 18.3667 103.499 18.66C104.406 18.9667 105.139 19.26 105.699 19.54C106.273 19.82 106.766 20.2267 107.179 20.76C107.593 21.2933 107.799 21.98 107.799 22.82C107.799 23.62 107.593 24.3467 107.179 25C106.779 25.6533 106.193 26.1733 105.419 26.56C104.646 26.9467 103.733 27.14 102.679 27.14ZM116.124 24.1V27H114.384C113.144 27 112.177 26.7 111.484 26.1C110.791 25.4867 110.444 24.4933 110.444 23.12V18.68H109.084V15.84H110.444V13.12H113.864V15.84H116.104V18.68H113.864V23.16C113.864 23.4933 113.944 23.7333 114.104 23.88C114.264 24.0267 114.531 24.1 114.904 24.1H116.124ZM117.349 21.4C117.349 20.2533 117.562 19.2467 117.989 18.38C118.429 17.5133 119.022 16.8467 119.769 16.38C120.516 15.9133 121.349 15.68 122.269 15.68C123.056 15.68 123.742 15.84 124.329 16.16C124.929 16.48 125.389 16.9 125.709 17.42V15.84H129.129V27H125.709V25.42C125.376 25.94 124.909 26.36 124.309 26.68C123.722 27 123.036 27.16 122.249 27.16C121.342 27.16 120.516 26.9267 119.769 26.46C119.022 25.98 118.429 25.3067 117.989 24.44C117.562 23.56 117.349 22.5467 117.349 21.4ZM125.709 21.42C125.709 20.5667 125.469 19.8933 124.989 19.4C124.522 18.9067 123.949 18.66 123.269 18.66C122.589 18.66 122.009 18.9067 121.529 19.4C121.062 19.88 120.829 20.5467 120.829 21.4C120.829 22.2533 121.062 22.9333 121.529 23.44C122.009 23.9333 122.589 24.18 123.269 24.18C123.949 24.18 124.522 23.9333 124.989 23.44C125.469 22.9467 125.709 22.2733 125.709 21.42ZM130.923 21.42C130.923 20.26 131.157 19.2467 131.623 18.38C132.103 17.5133 132.763 16.8467 133.603 16.38C134.457 15.9133 135.43 15.68 136.523 15.68C137.923 15.68 139.09 16.0467 140.023 16.78C140.97 17.5133 141.59 18.5467 141.883 19.88H138.243C137.937 19.0267 137.343 18.6 136.463 18.6C135.837 18.6 135.337 18.8467 134.963 19.34C134.59 19.82 134.403 20.5133 134.403 21.42C134.403 22.3267 134.59 23.0267 134.963 23.52C135.337 24 135.837 24.24 136.463 24.24C137.343 24.24 137.937 23.8133 138.243 22.96H141.883C141.59 24.2667 140.97 25.2933 140.023 26.04C139.077 26.7867 137.91 27.16 136.523 27.16C135.43 27.16 134.457 26.9267 133.603 26.46C132.763 25.9933 132.103 25.3267 131.623 24.46C131.157 23.5933 130.923 22.58 130.923 21.42ZM150.533 27L147.133 22.32V27H143.713V12.2H147.133V20.38L150.513 15.84H154.733L150.093 21.44L154.773 27H150.533Z" fill="white"/>
<defs>
<linearGradient id="paint0_linear_2001_408" x1="20" y1="0" x2="20" y2="40" gradientUnits="userSpaceOnUse">
<stop stop-color="#4C38FF"/>
<stop offset="1" stop-color="#00E5FF"/>
</linearGradient>
</defs>
</svg>
